Simulation
nRows=31
nColumns=15
endheader
time  TH_x TH_y TH_z SC_y  SC_z  SC_x  AC_y  AC_z  AC_x  GH_y  GH_z  GH_yy  EL_x  PS_y
0.0  0.000000  0.000000  0.000000  -25.46502371349112  -3.683201556497505  -12.131375455813455  59.488944148219296  16.54220551665266  -4.4160443771894204  -9.33168683746264  14.323388839456442  36.07668722206298  24.974121289528934  120.000000
0.027999999999999997  0.000000  0.000000  0.000000  -25.630359598789685  -3.5131568058716423  -11.510925940545857  59.48303366868288  16.27048195143378  -4.705585983527944  -9.803431623063938  14.63918641754212  36.34889986129129  24.58743338906583  120.000000
0.055999999999999994  0.000000  0.000000  0.000000  -25.74555507266258  -3.405081235195642  -10.975683605271879  59.57723886034053  15.954524970550873  -4.914078929322387  -10.229795738713037  14.88479400765756  36.654602509010594  24.2783414461317  120.000000
0.08399999999999999  0.000000  0.000000  0.000000  -25.857634355047246  -3.3221809574700742  -10.512913615877618  59.71401209376774  15.624170089781641  -5.063238484454122  -10.641560748379662  15.086685468347147  36.99174912350154  24.018546401814678  120.000000
0.11199999999999999  0.000000  0.000000  0.000000  -25.977132048266277  -3.2413581179829802  -10.10880690217343  59.862344802645914  15.299606703330715  -5.162767084356454  -11.061264803612344  15.267168173666866  37.36302633809027  23.790460030832126  120.000000
0.13999999999999999  0.000000  0.000000  0.000000  -26.107219238070076  -3.152755966688005  -9.747057105698342  60.01477061620283  14.993114871189137  -5.224343536144528  -11.510861036859248  15.45792711188349  37.764874910621266  23.573188310818587  120.000000
0.16799999999999998  0.000000  0.000000  0.000000  -26.246036825896425  -3.050092864790804  -9.41433977105598  60.16850226828812  14.710186319271068  -5.254803499319738  -12.009841735956424  15.69019366966078  38.191863288700524  23.353925831001344  120.000000
0.19599999999999998  0.000000  0.000000  0.000000  -26.391357996668543  -2.9329208602957806  -9.103472890001802  60.32600403833974  14.452304023877101  -5.258824147586909  -12.571424022832453  15.992862413670787  38.637279082509224  23.125389244508803  120.000000
0.22399999999999998  0.000000  0.000000  0.000000  -26.54335804284773  -2.805315178916284  -8.811109671186587  60.49018694620118  14.218770547852998  -5.238549771823558  -13.204282685590204  16.38846113927913  39.09124848223355  22.885201877459075  120.000000
0.252  0.000000  0.000000  0.000000  -26.70454872173397  -2.6722909945819606  -8.535924046432674  60.665751389487  14.008281100702241  -5.194994928607964  -13.910946026989194  16.89322912927619  39.540084048156565  22.63421104401707  120.000000
0.27999999999999997  0.000000  0.000000  0.000000  -26.87929391365234  -2.5373701742812385  -8.276695709973309  60.85888313387616  13.821707708542789  -5.128973776359688  -14.688394318066852  17.5170019593613  39.96651473016504  22.375327903916883  120.000000
0.30799999999999994  0.000000  0.000000  0.000000  -27.07244311458407  -2.401466840685857  -8.031048269691757  61.07531919565172  13.662120226996588  -5.0419821123037165  -15.528843268712889  18.263982492895444  40.34902387571763  22.1123197960215  120.000000
0.33599999999999997  0.000000  0.000000  0.000000  -27.28973578550463  -2.263271314066715  -7.794628363570728  61.318723536906106  13.534833886026611  -4.936747515355152  -16.420829811872085  19.13227312081331  40.66355230198617  21.84893733570405  120.000000
0.364  0.000000  0.000000  0.000000  -27.535453827146874  -2.1194007020264762  -7.562063384496331  61.58782929153963  13.446744995130446  -4.816548202686024  -17.35052303663533  20.113799399410578  40.88459639224929  21.58830705022919  120.000000
0.39199999999999996  0.000000  0.000000  0.000000  -27.81188606266467  -1.9651078142032639  -7.327781958539269  61.87886947507972  13.406665338639645  -4.68595808399099  -18.302997060701713  21.19508716325451  40.98695925964685  21.332497207315868  120.000000
0.41999999999999993  0.000000  0.000000  0.000000  -28.11902537286178  -1.7952388892509445  -7.086831584165926  62.18505392010804  13.42467384262596  -4.549571571748919  -19.262879621886793  22.3595767990977  40.94817420662254  21.081876261839643  120.000000
0.44799999999999995  0.000000  0.000000  0.000000  -28.454390505761303  -1.6054057990921398  -6.835632278396101  62.4991105283861  13.511775183165485  -4.412027159714904  -20.21585157643689  23.5892081640271  40.749817310180944  20.834068646451886  120.000000
0.476  0.000000  0.000000  0.000000  -28.81369777625642  -1.3930216888263593  -6.572427414978643  62.81347396384957  13.678765501866346  -4.277021062586797  -21.14864682208732  24.866873314899856  40.38025887472672  20.583409390929965  120.000000
0.504  0.000000  0.000000  0.000000  -29.191409196741898  -1.157638028580415  -6.297353278612862  63.12215576801982  13.935297359403036  -4.147021434869577  -22.04989353067687  26.1772456435744  39.83495381995859  20.320929917134332  120.000000
0.5319999999999999  0.000000  0.000000  0.000000  -29.581925153830912  -0.9007971279290762  -6.012101596052347  63.42069342910455  14.28898327534313  -4.022544685914967  -22.909669806948596  27.50762846921815  39.11791643536866  20.03569196203035  120.000000
0.5599999999999999  0.000000  0.000000  0.000000  -29.980017235235255  -0.6253265128597375  -5.719684210552747  63.70636871234953  14.744798892432387  -3.9022541157768535  -23.719284514846894  28.847878055338988  38.241478394207675  19.716707606556014  120.000000
0.588  0.000000  0.000000  0.000000  -30.381310835304582  -0.33446669090962733  -5.424175496982569  63.97661177068974  15.304517040422738  -3.7826894381461944  -24.470397708164075  30.190688949428576  37.22794635631577  19.355042915943955  120.000000
0.6159999999999999  0.000000  0.000000  0.000000  -30.781956242915772  -0.03111050767543143  -5.130922781661006  64.22779905497163  15.96632922178054  -3.6588712161781665  -25.154026441366767  31.53193740919482  36.10976045200263  18.945407297721744  120.000000
0.6439999999999999  0.000000  0.000000  0.000000  -31.178547025604363  0.2825931589850431  -4.846369384854128  64.4540701629031  16.724916572120932  -3.524398060138381  -25.760356380437468  32.870798610841895  34.92962846934688  18.48677671619979  120.000000
0.6719999999999999  0.000000  0.000000  0.000000  -31.56854536884029  0.6053407856834043  -4.578071660353454  64.64817886126382  17.571885818601  -3.3718210730837934  -26.279321427442948  34.20943247280307  33.73671807516153  17.981754775702694  120.000000
0.7  0.000000  0.000000  0.000000  -31.95076907407744  0.9360980947372379  -4.3341209686147755  64.80284766865971  18.496708863174565  -3.19305688910981  -26.702752103962727  35.55189441060668  32.58181450862385  17.435119983808534  120.000000
0.728  0.000000  0.000000  0.000000  -32.325925526151856  1.2736769270762638  -4.122602936607577  64.91310368840745  19.487668643533034  -2.979939250521377  -27.02634578557651  36.902903207585446  31.51056552506468  16.852401774498574  120.000000
0.7559999999999999  0.000000  0.000000  0.000000  -32.69720061463208  1.6169431935066585  -3.9504243792058347  64.97854398251233  20.53266409820202  -2.723929926592304  -27.251686914822482  38.266255195223444  30.557862456003697  16.239250870595974  120.000000
0.7839999999999999  0.000000  0.000000  0.000000  -33.06968713281671  1.9646815797657229  -3.82222691130868  65.00395173205506  21.619659290480186  -2.4172225232771707  -27.386780942100536  39.64362562449024  29.743863637576368  15.601312682217294  120.000000
0.8119999999999999  0.000000  0.000000  0.000000  -33.4492073696738  2.3154993055765782  -3.739915479195326  64.99816399513485  22.73699351178662  -2.053772212486664  -27.445669319461583  41.034175681129796  29.074486243098804  14.944297740564325  120.000000
0.8399999999999999  0.000000  0.000000  0.000000  -33.84108579389059  2.6682630758291084  -3.703252348030027  64.97160483324548  23.873706588178763  -1.6297234169047108  -27.446194875259128  42.43489812948221  28.544599479377457  14.274401650953973  120.000000
